<?xml version="1.0" encoding="utf-8"?>
<svg xmlns="http://www.w3.org/2000/svg" viewBox="0 0 500 500" xmlns:bx="https://boxy-svg.com">
  <defs>
    <bx:export>
      <bx:file format="png" href="#object-0"/>
    </bx:export>
  </defs>
  <path style="stroke: rgb(0, 0, 0); stroke-width: 1; fill: rgb(255, 255, 0);" d="M 347.14 -0.982 L 12.399 171.887 L 221.683 230.255 L 1.079 416.334 L 356.841 498.202 L 206.59 353.319 L 501.121 167.563 L 248.835 141.582 L 347.14 -0.982 Z" id="object-0"/>
  <path style="stroke: rgb(0, 0, 0); fill: rgb(115, 51, 38);" d="M 181.24 92.989 C 181.24 92.989 183.372 244.845 183.419 244.845 C 183.466 244.845 274.894 252.012 274.894 252.012 L 264.609 94.322 L 181.24 92.989 Z"/>
  <path style="stroke: rgb(0, 0, 0); stroke-width: 1; fill: rgb(115, 51, 38);" d="M 255.29 342.697 C 256.087 261.572 188.032 90.473 188.032 90.473 C 145.803 89.56 104.858 108.86 105.2 114.104 C 77.197 120.236 46.208 359.339 47.092 359.142 L 106.718 365.062 L 142.162 221.724 L 102.277 414.731 L 216.989 439.879 L 255.29 342.697 Z" id="object-2"/>
  <path style="stroke: rgb(0, 0, 0); stroke-width: 1; fill: rgb(115, 51, 38);" d="M 262.929 91.368 C 269.448 93.016 350.597 100.758 357.606 124.011 L 409.773 376.139 L 341.983 377.148 L 314.569 216.158 C 314.569 216.158 342.598 427.062 342.598 426.845 C 342.598 426.628 220.197 440.651 220.197 440.651 L 198.679 335.61 L 262.929 91.368 Z"/>
  <path style="fill: rgb(216, 216, 216); stroke: rgb(0, 0, 0); fill-opacity: 0;" d="M 187.74 92.029 L 157.581 131.485 L 181.455 154.691 L 157.47 178.801 L 220.261 252.868"/>
  <path style="fill: rgb(216, 216, 216); stroke: rgb(0, 0, 0); fill-opacity: 0; stroke-width: 1;" d="M 260.827 95.719 L 284.384 150.869 L 250.297 169.163 L 279.815 197.036 L 198.027 337.655"/>
</svg>